<?xml version="1.0" encoding="UTF-8" standalone="no"?>
<!-- Created with Inkscape (http://www.inkscape.org/) -->

<svg
   version="1.1"
   id="svg1"
   width="300.79999"
   height="300.79999"
   viewBox="0 0 300.79999 300.79999"
   sodipodi:docname="silhouette.png"
   inkscape:export-filename="..\IdeaProjects\personal-website\resources\silhouette.svg"
   inkscape:export-xdpi="81.702133"
   inkscape:export-ydpi="81.702133"
   xmlns:inkscape="http://www.inkscape.org/namespaces/inkscape"
   xmlns:sodipodi="http://sodipodi.sourceforge.net/DTD/sodipodi-0.dtd"
   xmlns="http://www.w3.org/2000/svg"
   xmlns:svg="http://www.w3.org/2000/svg">
  <defs
     id="defs1">
    <clipPath
       clipPathUnits="userSpaceOnUse"
       id="clipPath3">
      <circle
         style="fill:#ffffff;fill-opacity:1;stroke:#000000;stroke-width:0.755906;stroke-linejoin:round;stroke-opacity:0"
         id="circle3"
         cx="150.39999"
         cy="150.39999"
         r="150.39999" />
    </clipPath>
  </defs>
  <sodipodi:namedview
     id="namedview1"
     pagecolor="#ffffff"
     bordercolor="#000000"
     borderopacity="0.25"
     inkscape:showpageshadow="2"
     inkscape:pageopacity="0.0"
     inkscape:pagecheckerboard="0"
     inkscape:deskcolor="#d1d1d1" />
  <g
     inkscape:groupmode="layer"
     inkscape:label="Image"
     id="g1">
    <path
       style="fill:#000000"
       d="m 43.055055,299.50223 c 2.000386,-2.05229 5.791007,-4.44867 8.439508,-5.33535 1.941501,-0.64999 2.811171,-1.17064 4.358713,-2.60945 1.099526,-1.02227 3.031585,-2.34836 4.479999,-3.07489 1.400698,-0.7026 3.147529,-1.82662 3.881847,-2.49783 0.734319,-0.6712 2.534319,-1.8359 4,-2.5882 1.465681,-0.7523 3.734567,-2.06388 5.041969,-2.91461 1.307402,-0.85073 3.039514,-1.79849 3.849139,-2.10612 0.809624,-0.30763 2.619932,-1.271 4.022905,-2.14081 1.402974,-0.86981 3.153748,-1.88879 3.890609,-2.2644 1.56931,-0.79994 3.984947,-3.06618 4.488158,-4.21058 0.341473,-0.77658 0.642968,-1.20359 2.340367,-3.31472 1.661751,-2.06679 1.708889,-2.33011 1.476284,-8.24687 -0.208706,-5.30882 -0.243056,-5.5207 -1.010304,-6.23176 -0.436839,-0.40485 -0.794253,-1.00716 -0.794253,-1.33848 0,-0.64718 -1.78306,-2.43057 -2.182993,-2.1834 -0.13268,0.082 -0.268731,-0.18312 -0.302336,-0.58916 -0.103698,-1.25297 -0.674887,-2.41561 -1.18675,-2.41561 -0.544165,0 -0.665939,-0.81221 -0.167921,-1.12 0.536931,-0.33184 0.364721,-1.76296 -0.24,-1.99448 -0.84934,-0.32517 -1.682047,-1.44742 -1.606805,-2.16552 0.08924,-0.85166 -0.307651,-1.43985 -0.97208,-1.44064 -0.395589,-4.7e-4 -0.564042,-0.3203 -0.626368,-1.18925 -0.04689,-0.65374 -0.226889,-1.33025 -0.4,-1.50336 -0.173111,-0.17311 -0.314746,-0.69395 -0.314746,-1.15742 0,-0.46346 -0.1041,-0.94676 -0.231332,-1.07399 -0.127233,-0.12724 -0.263217,-0.72975 -0.302188,-1.33892 -0.03897,-0.60918 -0.380317,-1.54219 -0.758546,-2.07336 -0.37823,-0.53118 -0.608534,-1.17205 -0.511788,-1.42417 0.09675,-0.25212 0.03819,-0.5435 -0.130122,-0.64753 -0.168313,-0.10402 -0.306024,-0.46863 -0.306024,-0.81024 0,-0.34162 -0.18,-0.6255 -0.4,-0.63085 -0.221991,-0.005 -0.150787,-0.15488 0.16,-0.3359 0.766666,-0.44654 0.704015,-0.93437 -0.12,-0.93437 -0.578416,0 -0.652496,-0.13752 -0.495887,-0.92056 0.11232,-0.5616 0.0073,-1.15431 -0.269306,-1.52 -0.28828,-0.38112 -0.38583,-0.97949 -0.267842,-1.64295 0.109508,-0.61576 0.02642,-1.23527 -0.202694,-1.51134 -0.213549,-0.25731 -0.388271,-0.96585 -0.388271,-1.57454 0,-0.64804 -0.183799,-1.17723 -0.443492,-1.27688 -0.330757,-0.12692 -0.39291,-0.53922 -0.244504,-1.62196 0.135298,-0.98711 0.08264,-1.45177 -0.164509,-1.45177 -0.199922,0 -0.363495,-0.24066 -0.363495,-0.5348 0,-0.29414 -0.232376,-0.79158 -0.516391,-1.10541 -0.425327,-0.46998 -0.453204,-0.75186 -0.158085,-1.59844 0.296306,-0.84999 0.262977,-1.1709 -0.192609,-1.85459 -0.303003,-0.45472 -0.575735,-1.25876 -0.60607,-1.78676 -0.207562,-3.61276 -0.79143,-5.2548 -2.673927,-7.52 -2.20477,-2.65299 -2.653072,-3.63485 -2.608124,-5.71228 0.157588,-7.28351 0.0039,-19.20613 -0.269251,-20.88961 -0.436449,-2.68977 -0.41365,-7.28894 0.04897,-9.87811 0.204403,-1.144 0.337128,-3.35142 0.294944,-4.90538 -0.0865,-3.18649 0.536204,-4.51268 2.501064,-5.32655 1.152856,-0.47753 1.265273,-1.41944 0.526677,-4.4129 -0.703714,-2.85208 -1.171247,-5.4492 -1.472411,-8.17915 -0.15193,-1.3772 -0.4294,-2.68854 -0.616601,-2.91411 -0.187201,-0.22556 -0.477744,-1.04276 -0.645652,-1.81601 -0.167908,-0.77324 -0.404922,-1.8379 -0.526699,-2.3659 -0.196258,-0.85093 -2.674268,-5.00737 -3.705227,-6.21488 -0.213606,-0.25018 -0.356049,-0.87912 -0.31654,-1.39763 0.114325,-1.50038 -1.073283,-2.5497 -1.281809,-1.13255 -0.147866,1.0049 -0.790925,1.07221 -1.032896,0.10812 -0.264832,-1.05517 -0.903182,-1.30252 -4.922975,-1.90757 -4.102537,-0.61749 -10.199556,-3.44677 -10.894956,-5.05571 -0.05971,-0.13816 -0.322,-0.46463 -0.582858,-0.72549 -0.905422,-0.90542 -0.112848,-0.46286 2.982569,1.66542 3.280311,2.25541 7.714811,3.82234 8.524882,3.01227 0.35884,-0.35884 0.03753,-0.53927 -1.376022,-0.77271 -0.585764,-0.0967 -0.491758,-0.14378 0.351037,-0.17569 0.720776,-0.0273 1.412022,0.18278 1.849227,0.56196 1.101105,0.95499 2.158226,0.2863 2.406076,-1.52196 0.327558,-2.3898 0.275896,-2.60357 -0.629198,-2.60357 -0.748052,0 -0.777143,-0.0457 -0.32,-0.50286 0.633152,-0.63315 0.667599,-1.54883 0.04934,-1.31159 -0.554807,0.2129 -0.808419,-0.36364 -0.61841,-1.40584 0.12464,-0.68365 -0.117828,-0.91665 -1.968004,-1.89114 -2.165082,-1.14036 -2.794804,-1.67129 -3.141385,-2.64857 -0.319197,-0.90007 0.468083,-0.66028 1.839446,0.56025 1.761994,1.56819 2.995582,1.5414 1.301871,-0.0283 -0.826196,-0.76569 -1.017736,-1.95507 -0.829813,-5.1528 0.06451,-1.09765 -0.07073,-1.47083 -0.745695,-2.0577 -0.992899,-0.86332 -1.027803,-1.13382 -0.180983,-1.40259 0.542552,-0.1722 1.596491,-1.639729 1.596491,-2.222993 0,-0.09674 -0.432,-0.175891 -0.96,-0.175891 -1.069002,0 -1.17301,-0.191061 -0.508882,-0.934803 0.760186,-0.851314 0.748132,-1.722015 -0.02664,-1.923933 -0.991095,-0.258297 -0.0081,-1.416436 1.335518,-1.57345 1.767979,-0.206606 2.022203,-1.062249 0.47578,-1.601335 -0.530321,-0.18487 -1.046238,-0.549865 -1.146483,-0.811098 -0.100245,-0.261233 -0.386346,-0.396656 -0.63578,-0.300939 -0.249435,0.09572 -0.453517,0.01463 -0.453517,-0.180205 0,-0.19483 0.294525,-0.354237 0.6545,-0.354237 0.584032,0 0.629637,-0.1292 0.423571,-1.2 -0.127011,-0.66 -0.214171,-1.456172 -0.19369,-1.769272 0.02048,-0.313099 -0.242125,-0.743738 -0.583571,-0.956975 -0.341445,-0.213236 -0.62081,-0.612264 -0.62081,-0.886727 0,-0.274464 -0.1728,-0.671825 -0.384,-0.883025 -0.298667,-0.298667 -0.192,-0.384 0.48,-0.384 0.4752,0 0.864,-0.07707 0.864,-0.171259 0,-0.363815 -1.110278,-1.93511 -1.739386,-2.461626 -0.368763,-0.308627 -0.483899,-0.556028 -0.260614,-0.56 0.22,-0.0039 0.4,-0.223115 0.4,-0.487115 0,-0.264 -0.18,-0.482205 -0.4,-0.4849 -0.289659,-0.0035 -0.27835,-0.08195 0.041,-0.284223 0.472251,-0.299119 0.319226,-0.718166 -0.653982,-1.790877 -0.319349,-0.352 -0.94207,-1.042546 -1.383825,-1.534546 -0.441754,-0.492 -0.80319,-1.225681 -0.80319,-1.630404 0,-0.758978 -0.699602,-1.548681 -1.68,-1.896367 -0.594024,-0.210663 -0.786123,-1.178683 -0.233903,-1.178683 0.422295,0 0.04942,-1.596461 -0.529076,-2.265197 -0.240362,-0.277858 -0.437021,-0.648757 -0.437021,-0.824219 0,-0.175463 -0.36,-0.657225 -0.8,-1.070584 -1.016276,-0.954741 -1.13008,-2.853598 -0.185824,-3.100527 0.464249,-0.121404 0.668257,-0.563255 0.835718,-1.810042 0.283917,-2.113834 0.696237,-2.906912 0.982314,-1.889431 0.11134,0.396 0.325122,0.72 0.475071,0.72 0.149949,0 0.182208,-0.235648 0.07169,-0.523663 -0.133871,-0.348864 -0.05948,-0.476508 0.222858,-0.382395 0.233094,0.0777 0.440683,0.526789 0.46131,0.997982 0.04789,1.093981 0.620411,1.660769 1.712867,1.695714 0.4752,0.0152 1.116,0.138607 1.424,0.274236 0.885931,0.390125 0.660156,-0.288011 -0.460748,-1.383903 -0.561412,-0.548884 -0.833068,-0.997971 -0.603681,-0.997971 0.281387,0 0.371231,-0.31231 0.27617,-0.959999 -0.150515,-1.025525 0.186862,-1.306394 0.521555,-0.434199 0.110972,0.28919 0.289312,0.438257 0.396311,0.331258 0.106998,-0.106998 0.465745,-0.0494 0.797215,0.127999 0.459952,0.246159 0.639439,0.205602 0.757925,-0.171259 0.08539,-0.27159 0.224659,-0.714818 0.309489,-0.984953 0.137715,-0.43854 0.23768,-0.436479 0.933191,0.01924 0.428424,0.280715 1.619018,0.564853 2.645763,0.631417 1.559483,0.101103 1.735108,0.06357 1.066809,-0.227979 -0.676262,-0.295025 -0.711005,-0.370302 -0.224627,-0.486688 0.316455,-0.07572 0.748455,-0.0016 0.96,0.164618 0.211545,0.166265 0.780627,0.3969 1.264627,0.512521 1.312134,0.313452 1.090825,-0.38148 -0.32,-1.004832 -1.2,-0.530203 -1.2,-0.530203 0.08,-0.70799 1.21895,-0.169308 2.540578,0.06779 3.755658,0.673744 0.772164,0.385077 1.510837,0.359952 0.89361,-0.03039 -0.258903,-0.163735 -0.397391,-0.371043 -0.307751,-0.460683 0.221894,-0.221894 2.469031,0.570732 2.932763,1.034464 0.655298,0.655297 1.27864,0.467897 0.88572,-0.26628 -0.274802,-0.513472 -0.243357,-0.64 0.159053,-0.64 0.275864,0 0.60493,0.269809 0.731259,0.599576 0.191361,0.499527 0.36318,0.544847 1.029688,0.271595 0.44,-0.180389 1.052,-0.297147 1.36,-0.259461 0.308,0.03768 0.56,-0.07603 0.56,-0.25271 0,-0.554947 -0.555117,-0.695432 -1.431434,-0.362257 -0.482555,0.183467 -0.766412,0.193935 -0.661634,0.0244 0.100929,-0.163307 0.03481,-0.388822 -0.146932,-0.501144 -0.677222,-0.418546 0.03533,-0.724634 1.118296,-0.480385 0.634957,0.143206 1.121704,0.12875 1.121704,-0.03332 0,-0.157465 0.205548,-0.2863 0.456774,-0.2863 0.251226,0 0.740762,-0.361031 1.087857,-0.802292 0.401245,-0.5101 0.817603,-0.730716 1.143226,-0.605763 0.281678,0.10809 0.512143,0.03712 0.512143,-0.157709 0,-0.344556 -0.409732,-0.478243 -1.17587,-0.383664 -0.206728,0.02552 -0.467227,-0.101418 -0.578885,-0.282086 -0.111659,-0.180667 -0.549998,-0.328486 -0.974087,-0.328486 -0.553928,0 -0.7192,-0.135175 -0.586879,-0.48 0.1347,-0.351022 -0.03997,-0.48 -0.650043,-0.48 -0.52821,0 -0.834236,0.17608 -0.834236,0.48 0,0.264 -0.130519,0.48 -0.290042,0.48 -0.557497,0 0.03493,-1.222324 0.673341,-1.389273 0.354271,-0.09264 0.581131,-0.357437 0.504134,-0.588429 -0.19976,-0.599278 -2.341253,-0.871351 -3.848043,-0.488887 -1.145199,0.290682 -1.337458,0.252269 -1.800736,-0.35979 -0.607187,-0.802182 -2.135212,-0.750886 -3.4584,0.1161 -1.098299,0.719633 -1.877741,0.06817 -0.900254,-0.752436 0.352,-0.295507 0.64,-0.736932 0.64,-0.980946 0,-0.423104 3.304026,-2.330751 5.626494,-3.24857 1.093506,-0.432145 1.093506,-0.432145 -0.826494,-0.618908 -1.92,-0.186764 -1.92,-0.186764 0.240117,-0.455104 1.188064,-0.147587 2.461032,-0.189649 2.828818,-0.09347 1.522627,0.398175 6.598148,-0.8385 5.720222,-1.39376 -0.356285,-0.225338 -0.261986,-0.297906 0.391957,-0.301627 0.473613,-0.0027 0.950112,-0.1489 1.058886,-0.3249 0.108774,-0.176 0.422904,-0.32 0.698067,-0.32 0.408426,0 0.427144,0.08814 0.101933,0.48 -0.488208,0.588254 -0.03998,0.630299 1.114023,0.104498 0.504497,-0.229864 0.686205,-0.46075 0.468503,-0.595297 -0.1956,-0.120887 0.700314,-0.562181 1.990919,-0.980652 1.290605,-0.418471 2.394554,-0.870587 2.453221,-1.004703 0.170512,-0.389799 0.699375,-0.283519 1.230093,0.2472 0.375045,0.375045 0.59513,0.404663 0.931646,0.125379 0.242331,-0.201116 1.235121,-0.390113 2.206202,-0.419992 1.826711,-0.05621 3.077939,-0.967114 2.535043,-1.845539 -0.125085,-0.202391 0.01,-0.541564 0.300093,-0.753716 0.290137,-0.212153 0.973831,-0.946308 1.519321,-1.631455 0.599852,-0.753428 1.263533,-1.245722 1.679406,-1.245722 0.439095,0 0.688316,-0.201101 0.689568,-0.556424 0.0011,-0.306033 0.145961,-0.526289 0.321961,-0.489457 0.176,0.03683 0.274638,0.264502 0.219196,0.505933 -0.19375,0.84371 0.895983,1.293297 1.909383,0.787745 1.20887,-0.603064 1.15885,-1.113394 -0.0969,-0.988268 -0.65189,0.06496 -1.0632,-0.05894 -1.16366,-0.350521 -0.10825,-0.314186 0.007,-0.388625 0.3804,-0.245395 0.55064,0.211301 0.62996,0.09113 0.97388,-1.475414 0.18488,-0.842135 0.2342,-0.864894 0.88555,-0.408668 0.70185,0.491595 1.95481,0.3894 2.73212,-0.222838 0.26955,-0.212309 0.4,-0.197919 0.4,0.04412 0,0.566532 0.63828,0.418505 0.86591,-0.200817 0.1132,-0.308 0.38329,-0.667661 0.60019,-0.799246 0.21691,-0.131585 0.31897,-0.527585 0.22681,-0.88 -0.18973,-0.725526 0.49256,-0.863712 1.52812,-0.309495 0.35295,0.188894 0.61897,0.204199 0.61897,0.03561 0,-0.162606 0.504,-0.390197 1.12,-0.505759 0.94002,-0.176351 1.12531,-0.34919 1.15307,-1.075613 0.0286,-0.747952 0.0767,-0.701072 0.35431,0.345173 0.332,1.251227 0.39491,1.269741 2.11516,0.622526 0.3264,-0.122804 0.37143,0.113508 0.19788,1.038589 -0.22466,1.197565 -0.22466,1.197565 0.85746,0.954041 0.59516,-0.133938 1.84974,-0.22584 2.78795,-0.204227 1.0305,0.02374 1.99273,-0.148685 2.43051,-0.435529 0.76672,-0.502375 2.24768,-0.443921 3.80449,0.150165 1.03764,0.395969 2.56371,0.452555 2.90842,0.107843 0.12975,-0.129755 0.46536,-0.237755 0.74578,-0.24 0.28043,-0.0022 0.57695,-0.204125 0.65893,-0.448624 0.10018,-0.298748 0.0127,-0.360243 -0.26683,-0.187506 -0.29216,0.180566 -0.35956,0.110216 -0.22652,-0.236463 0.10415,-0.271426 0.0278,-0.655048 -0.16962,-0.852495 -0.26533,-0.265324 -0.13004,-0.358993 0.51851,-0.358993 1.20506,0 1.906,-0.659613 1.22786,-1.155477 -0.43385,-0.31724 -0.44545,-0.595352 -0.0909,-2.179488 0.25851,-1.155143 0.29639,-1.955782 0.1041,-2.200441 -0.16625,-0.211526 -0.39873,-0.787961 -0.51661,-1.280965 -0.31448,-1.315245 0.65366,-1.028067 1.87616,0.55652 0.53471,0.693082 1.11184,1.230312 1.28251,1.193844 0.37762,-0.08069 0.23156,-2.333285 -0.17883,-2.757993 -0.38743,-0.400938 -0.37407,-0.816 0.0262,-0.816 0.176,0 0.32,0.136581 0.32,0.303513 0,0.166932 0.36,0.69196 0.8,1.166727 0.44,0.474768 0.8,0.713594 0.8,0.530724 0,-0.18287 0.198,-0.408471 0.44,-0.501335 0.3009,-0.115466 0.44,0.08363 0.44,0.629764 0,1.97123 1.83223,2.168086 3.45555,0.371267 0.68603,-0.759363 1.32319,-1.393097 1.4159,-1.408297 0.70074,-0.114896 1.38293,-0.658922 1.62515,-1.296006 0.38743,-1.019016 1.01245,-0.982878 0.75481,0.04364 -0.25341,1.009668 0.5262,1.079557 2.0023,0.179499 0.87705,-0.534782 1.03882,-0.552663 1.2,-0.132632 0.2603,0.67832 0.23976,0.75171 -0.21371,0.763779 -0.5734,0.01526 -1.97236,1.243658 -1.71239,1.503624 0.12004,0.120047 0.60844,-0.03735 1.08533,-0.349781 0.47689,-0.312426 1.3922,-0.790252 2.03403,-1.061834 0.64184,-0.271583 1.31789,-0.801782 1.50234,-1.178221 0.33537,-0.684434 0.33537,-0.684434 0.55035,0.03557 0.23542,0.788444 0.78034,0.9834 0.78034,0.279182 0,-0.242449 0.21948,-0.622969 0.48774,-0.8456 0.26825,-0.22263 0.41194,-0.480576 0.3193,-0.573214 -0.25058,-0.250578 0.82473,-1.340368 1.32256,-1.340368 0.23672,0 0.4304,-0.273913 0.4304,-0.608696 0,-0.389219 0.34767,-0.729893 0.96422,-0.944824 0.53032,-0.184871 1.04973,-0.558958 1.15424,-0.831304 0.36138,-0.941736 0.61797,-0.48993 0.49115,0.864824 -0.12445,1.329386 -0.11326,1.347394 0.49674,0.8 0.93239,-0.836699 1.07405,-0.701087 0.91922,0.88 -0.0776,0.792 -0.007,1.44 0.15671,1.44 0.16375,0 0.29772,-0.147564 0.29772,-0.32792 0,-0.180356 0.396,-0.477183 0.88,-0.659615 0.484,-0.182432 1.29813,-0.538868 1.80917,-0.79208 1.69891,-0.841782 2.43136,-0.615296 1.3257,0.409931 -0.51623,0.478674 -1.13801,0.899583 -1.38172,0.935353 -1.09681,0.160978 -1.29128,0.414667 -1.18602,1.547185 0.0919,0.988649 0.0246,1.129556 -0.46525,0.974088 -0.65316,-0.207304 -2.23911,0.920262 -1.84732,1.313399 0.14,0.140488 0.55002,0.07091 0.91116,-0.154627 0.95641,-0.597287 1.08707,-0.217609 0.22095,0.642039 -0.91313,0.906302 -1.61844,3.06022 -1.23605,3.774721 0.16035,0.299601 0.14239,0.751226 -0.043,1.08257 -0.50372,0.900102 -0.0108,3.094956 0.69513,3.094956 0.40107,0 0.65842,-0.327731 0.81416,-1.036802 0.12525,-0.57024 0.56869,-1.483833 0.98543,-2.030205 0.41674,-0.546372 0.76866,-1.267811 0.78205,-1.603198 0.0134,-0.335387 0.22932,-1.113795 0.47986,-1.729795 0.45551,-1.12 0.45551,-1.12 0.34356,0.789554 -0.10842,1.849227 -0.0958,1.884665 0.40014,1.121721 2.03546,-3.131458 6.94803,-7.640923 7.50368,-6.887962 0.31956,0.433034 0.45328,0.371197 1.00841,-0.466348 0.37892,-0.571681 1.08956,-1.090825 1.74201,-1.272598 1.25876,-0.350692 1.64429,-0.181174 0.9073,0.39894 -0.35117,0.276421 -0.42367,0.590732 -0.23913,1.036693 0.19446,0.46993 0.27082,0.504838 0.28733,0.131365 0.0124,-0.279749 0.38249,-0.672662 0.82249,-0.87314 0.44,-0.200477 0.8,-0.583591 0.8,-0.851364 0,-0.267774 0.144,-0.504861 0.32,-0.526861 0.176,-0.022 0.716,-0.07183 1.2,-0.110726 0.484,-0.0389 1.57076,-0.342464 2.41502,-0.674589 1.20689,-0.474781 1.58858,-0.517198 1.78558,-0.198436 0.14748,0.238624 0.48841,0.314161 0.82865,0.183598 0.39869,-0.152992 0.53495,-0.09244 0.43909,0.195142 -0.0764,0.229335 -0.54824,0.460606 -1.04843,0.513935 -1.19094,0.126974 -1.77991,0.364115 -1.77991,0.716658 0,0.157118 0.36,0.21685 0.8,0.132739 0.93258,-0.178274 1.03712,0.151127 0.24,0.756225 -0.50908,0.38645 -0.47999,0.426025 0.32,0.435277 0.94381,0.01092 1.18469,0.464784 0.4054,0.763827 -0.26104,0.100168 -0.39848,0.380504 -0.30544,0.622968 0.093,0.242465 -0.0534,0.625548 -0.32539,0.851296 -0.31977,0.26538 -0.49457,0.28705 -0.49457,0.06131 0,-0.192027 -0.19999,-0.272394 -0.44443,-0.178595 -0.35158,0.134915 -0.37213,0.362094 -0.0984,1.087401 0.25096,0.664854 0.24706,1.134163 -0.0142,1.707486 -0.39096,0.858068 -0.19251,1.337882 0.36751,0.888558 0.53526,-0.429456 1.93929,0.194938 1.54959,0.689124 -0.89367,1.133269 0.0156,2.081231 1.33809,1.395092 0.63423,-0.329041 0.71836,-0.498619 0.4099,-0.826158 -0.3076,-0.326618 -0.28854,-0.379915 0.0919,-0.25686 0.26596,0.08603 0.44601,0.460605 0.40378,0.84 -0.10624,0.954318 0.39811,0.858357 2.1667,-0.412254 1.85594,-1.333357 2.00568,-1.097166 1.68789,2.662307 -0.14902,1.762943 -0.10507,2.316584 0.1704,2.146334 0.20418,-0.126188 0.37123,-0.465734 0.37123,-0.754547 0,-0.778366 0.66018,-0.01722 0.72439,0.83518 0.0617,0.81905 0.45858,0.874711 1.23391,0.17305 0.77251,-0.699112 0.69078,0.609849 -0.11251,1.80183 -0.96573,1.433034 -0.31956,2.63303 0.942,1.749394 0.83835,-0.587202 1.11533,-0.232159 0.85079,1.090566 -0.13877,0.693839 -0.38231,0.992865 -0.80862,0.992865 -0.33552,0 -0.69293,0.216 -0.79424,0.48 -0.1013,0.264 -0.38478,0.48 -0.62995,0.48 -0.24517,0 -0.44577,0.144 -0.44577,0.32 0,0.397671 0.0751,0.397277 1.1357,-0.006 0.72967,-0.277422 0.82813,-0.249807 0.66111,0.185429 -0.27121,0.706769 0.11598,2.088579 0.55932,1.99609 0.3887,-0.08109 2.128,0.952601 2.51897,1.497057 0.12931,0.180065 0.23731,0.01189 0.24,-0.373723 0.006,-0.838208 0.56683,-1.264958 1.04035,-0.791434 0.23959,0.239582 0.19391,0.562176 -0.15499,1.094664 -0.44747,0.682928 -0.379,1.275567 0.24093,2.085417 0.23615,0.308491 1.12269,-0.444829 1.44814,-1.230526 0.56871,-1.37299 1.04569,-1.167615 0.79089,0.340536 -0.21584,1.277542 -0.21584,1.277542 0.7448,1.085414 0.95711,-0.191423 0.96017,-0.187305 0.83402,1.122458 -0.13727,1.425119 0.21593,1.671542 1.16491,0.81273 0.4707,-0.425979 0.66617,-0.438074 1.29282,-0.08 1.73934,0.993861 1.71317,1.15896 -0.33235,2.096704 -1.79973,0.825064 -2.70581,1.649872 -1.33423,1.21455 0.40194,-0.127572 0.90965,0.08362 1.48673,0.618436 0.48198,0.446691 1.07131,0.812165 1.30961,0.812165 0.2383,0 0.43327,0.144 0.43327,0.32 0,0.176 -0.216,0.32 -0.48,0.32 -1.03242,0 0.31665,1.466494 1.65901,1.803404 0.63945,0.160493 0.74239,0.389507 0.75117,1.671286 0.009,1.370714 0.0462,1.437734 0.47669,0.86867 0.67656,-0.894272 1.01083,-0.320055 0.41127,0.706485 -0.49857,0.853611 -0.47268,4.230155 0.0324,4.230155 0.18312,0 1.01472,-1.713168 1.11322,-2.293334 0.12282,-0.723384 0.54278,-0.533857 0.714,0.322222 0.33958,1.697921 1.01098,1.247386 0.83714,-0.561758 -0.12983,-1.351136 -0.0386,-1.694242 0.64719,-2.433821 0.98266,-1.059755 1.22426,-0.743554 0.86298,1.129461 -0.44972,2.331574 -0.38621,2.87723 0.33491,2.87723 0.46933,0 0.64,-0.213334 0.64,-0.8 0,-0.44 0.1608,-0.8 0.35732,-0.8 0.22915,0 0.27025,0.258277 0.11459,0.72 -0.83247,2.469287 -0.0683,6.857914 0.95791,5.501161 0.37302,-0.493177 0.47192,-0.518966 0.48,-0.125162 0.006,0.2728 -0.16022,0.6664 -0.36849,0.874667 -0.47172,0.471729 -0.13751,0.853089 0.52487,0.598909 0.27159,-0.104219 0.4938,-0.464377 0.4938,-0.80035 0,-0.335974 0.21306,-0.787681 0.47346,-1.003794 0.2604,-0.216113 0.56769,-1.103315 0.68286,-1.97156 0.12422,-0.936383 0.35339,-1.530636 0.5633,-1.460666 0.42858,0.142862 1.13536,-0.727505 2.15452,-2.653205 0.76211,-1.44 0.76211,-1.44 0.86426,-0.4 0.11634,1.184423 0.2576,1.251408 1.0764,0.510404 0.72138,-0.652836 0.818,0.02251 0.1052,0.73531 -0.51861,0.518607 -0.6555,2.208047 -0.20165,2.488545 0.1531,0.09462 0.5265,-0.616885 0.82979,-1.581114 0.63114,-2.006587 1.13186,-2.278324 1.13186,-0.61426 0,0.690599 0.12812,1.059701 0.3255,0.937716 0.20184,-0.124747 0.25159,-1.067718 0.13094,-2.482187 -0.17582,-2.061321 -0.14553,-2.240325 0.3145,-1.858533 0.30278,0.251285 0.50906,0.917635 0.50906,1.644416 0,0.672062 0.15416,1.317208 0.34258,1.433657 0.21039,0.130029 0.26128,0.692958 0.13187,1.458886 -0.23269,1.37732 -0.0293,1.508046 1.10742,0.711839 0.42036,-0.294427 0.6599,-0.366427 0.53232,-0.16 -0.13955,0.225791 -0.0332,0.37532 0.26693,0.37532 0.29514,0 0.49888,-0.277371 0.49888,-0.679182 0,-0.573993 0.076,-0.616115 0.49066,-0.271971 0.43592,0.361783 0.4168,0.485827 -0.17137,1.111906 -0.8086,0.860718 -2.32335,4.918631 -2.07633,5.562355 0.0983,0.256149 0.0658,0.549237 -0.0721,0.651308 -0.34367,0.254264 -1.69084,2.193699 -1.69084,2.434191 0,0.106986 0.288,0.103114 0.64,-0.0086 0.91276,-0.2897 0.86233,1.087702 -0.08,2.184804 -2.12862,2.478248 -2.46108,3.095196 -1.66789,3.095196 0.31534,0 0.46989,0.258632 0.43023,0.72 -0.12835,1.493462 0.0554,2.122498 0.67766,2.32 0.73533,0.233385 0.9199,2.312104 0.26356,2.968438 -0.28858,0.288586 -0.25685,0.508897 0.13597,0.944 0.28182,0.312159 0.68432,1.251562 0.89443,2.087562 0.40411,1.60789 0.57293,1.762601 1.22217,1.12 0.32527,-0.321939 0.33766,-0.223941 0.0635,0.502157 -0.29042,0.769165 -0.21084,1.122964 0.53987,2.4 0.83914,1.427478 1.26875,4.217842 0.6494,4.217842 -0.78434,0 0.009,2.184657 1.25801,3.462857 0.48631,0.497806 0.55644,1.143509 0.0931,0.857143 -0.18149,-0.112167 -0.32,0.156677 -0.32,0.621115 0,0.450387 -0.16415,0.818885 -0.36477,0.818885 -0.45621,0 -0.14828,3.522916 0.33398,3.820976 0.44706,0.2763 0.0514,4.81903 -0.41974,4.81903 -0.19674,0 -0.49985,0.30766 -0.67359,0.6837 -0.17373,0.37603 -0.45426,0.65338 -0.62339,0.61632 -0.48655,-0.10662 -0.78277,1.00033 -0.58503,2.18623 0.11782,0.70664 0.0655,1.01482 -0.14964,0.88184 -0.77198,-0.47711 -0.95602,1.81962 -0.2542,3.17238 0.45362,0.87434 0.3845,1.58592 -0.12353,1.27194 -0.14063,-0.0869 -0.4292,0.73874 -0.64126,1.83478 -0.21206,1.09604 -0.45127,2.32269 -0.53158,2.72589 -0.0803,0.4032 -0.26329,0.66061 -0.40664,0.57201 -0.41043,-0.25366 -2.95611,4.52356 -3.39706,6.3749 -0.22088,0.9274 -0.6642,4.54944 -0.9204,7.52 -0.0683,0.792 -0.29422,2.448 -0.50203,3.68 -0.20781,1.232 -0.43937,3.464 -0.51459,4.96 -0.0752,1.496 -0.29773,3.40568 -0.49446,4.24372 -0.5362,2.28417 -0.30466,2.59611 1.38832,1.87041 4.98328,-2.13609 8.60131,0.0354 9.00699,5.40587 0.61241,8.10715 0.16892,12.37604 -2.24401,21.6 -1.75849,6.72224 -2.08453,8.38814 -2.21194,11.30212 -0.20099,4.59686 -3.75721,10.29788 -6.42367,10.29788 -1.53529,0 -2.36368,1.09251 -2.36574,3.12 -0.001,1.1 -0.11859,2 -0.26106,2 -0.21322,0 -1.02362,5.13302 -1.18726,7.52 -0.0241,0.352 -0.13208,0.856 -0.23988,1.12 -0.10781,0.264 -0.26859,1.128 -0.35729,1.92 -0.44526,3.97571 -1.01931,6.53275 -1.68627,7.5112 -0.23664,0.34716 -0.43369,1.13916 -0.43789,1.76 -0.004,0.62084 -0.14242,1.6328 -0.30715,2.2488 -0.16473,0.616 -0.47355,1.804 -0.68628,2.64 -0.21848,0.85865 -0.57215,1.52 -0.81285,1.52 -0.28068,0 -0.42609,0.41861 -0.42609,1.22667 0,0.67466 -0.0927,1.31935 -0.20596,1.43263 -0.59326,0.59325 -1.67374,3.94983 -1.4975,4.65204 0.13669,0.5446 0.0848,0.7149 -0.16987,0.5575 -0.23748,-0.14677 -0.36667,0.0499 -0.36667,0.55804 0,0.43156 -0.20486,0.86326 -0.45525,0.95934 -0.25039,0.0961 -0.78031,1.18397 -1.1776,2.41753 -0.3973,1.23355 -0.82433,2.17979 -0.94897,2.10276 -0.30151,-0.18634 -1.25687,2.77383 -1.26308,3.91362 -0.004,0.67994 -0.0777,0.78482 -0.3026,0.42914 -0.16373,-0.25891 -0.3444,-0.40291 -0.40148,-0.32 -0.45535,0.66134 -1.53102,3.32392 -1.53102,3.78969 0,0.32002 -0.288,0.84248 -0.64,1.16104 -0.352,0.31856 -0.64,0.81607 -0.64,1.1056 0,0.28952 -0.1743,0.7007 -0.38734,0.91374 -0.52537,0.52537 -0.5756,4.77546 -0.0707,5.98381 0.37156,0.88927 0.85023,1.51283 2.8225,3.67685 0.40101,0.44 1.34821,1.75468 2.10489,2.9215 1.202,1.85351 1.62306,2.23281 3.33323,3.00258 4.86855,2.19142 7.16584,3.42502 8.2947,4.45409 1.2627,1.15109 1.53451,1.27699 3.45156,1.59879 0.63652,0.10684 1.49272,0.56339 1.92,1.02378 0.42415,0.45701 2.26099,1.53969 4.08186,2.40594 3.57359,1.70009 6.96083,4.18777 8.86323,6.50939 0.86055,1.0502 1.87232,1.77705 3.62962,2.60753 2.92342,1.38157 7.24869,4.15298 8.35647,5.3544 0.44,0.47719 1.952,1.77974 3.36,2.89454 1.408,1.11481 2.83432,2.33305 3.1696,2.70719 0.60959,0.68027 0.60959,0.68027 -102.86494,0.68027 -103.474533,0 -103.474533,0 -102.20959,-1.29776 z"
       id="path1"
       clip-path="url(#clipPath3)" />
  </g>
</svg>
